<svg xmlns="http://www.w3.org/2000/svg" xml:space="preserve" width="1200" height="1200"><path d="M0 0h1200v1200H0z"/><path d="M0 0h100v100H0z" style="fill:#fff" transform="matrix(.48 0 0 .48 528 96)"/><path d="M0 0h100v100H0z" style="fill:#fff" transform="matrix(.48 0 0 .48 624 96)"/><path d="M0 0h100v100H0z" style="fill:#fff" transform="matrix(.48 0 0 .48 480 144)"/><path d="M0 0h100v100H0z" style="fill:#fff" transform="matrix(.48 0 0 .48 528 144)"/><path d="M0 0h100v100H0z" style="fill:#fff" transform="matrix(.48 0 0 .48 576 144)"/><path d="M0 0h100v100H0z" style="fill:#fff" transform="matrix(.48 0 0 .48 624 144)"/><path d="M0 0h100v100H0z" style="fill:#fff" transform="matrix(.48 0 0 .48 672 144)"/><path d="M0 0h100v100H0z" style="fill:#fff" transform="matrix(.48 0 0 .48 528 192)"/><path d="M0 0h100v100H0z" style="fill:#fff" transform="matrix(.48 0 0 .48 672 192)"/><path d="M0 0h100v100H0z" style="fill:#fff" transform="matrix(.48 0 0 .48 528 240)"/><path d="M0 0h100v100H0z" style="fill:#fff" transform="matrix(.48 0 0 .48 576 240)"/><path d="M0 0h100v100H0z" style="fill:#fff" transform="matrix(.48 0 0 .48 672 240)"/><path d="M0 0h100v100H0z" style="fill:#fff" transform="matrix(.48 0 0 .48 480 288)"/><path d="M0 0h100v100H0z" style="fill:#fff" transform="matrix(.48 0 0 .48 528 288)"/><path d="M0 0h100v100H0z" style="fill:#fff" transform="matrix(.48 0 0 .48 576 288)"/><path d="M0 0h100v100H0z" style="fill:#fff" transform="matrix(.48 0 0 .48 624 288)"/><path d="M0 0h100v100H0z" style="fill:#fff" transform="matrix(.48 0 0 .48 672 288)"/><path d="M0 0h100v100H0z" style="fill:#fff" transform="matrix(.48 0 0 .48 528 336)"/><path d="M0 0h100v100H0z" style="fill:#fff" transform="matrix(.48 0 0 .48 624 336)"/><path d="M0 0h100v100H0z" style="fill:#fff" transform="matrix(.48 0 0 .48 480 384)"/><path d="M0 0h100v100H0z" style="fill:#fff" transform="matrix(.48 0 0 .48 576 384)"/><path d="M0 0h100v100H0z" style="fill:#fff" transform="matrix(.48 0 0 .48 672 384)"/><path d="M0 0h100v100H0z" style="fill:#fff" transform="matrix(.48 0 0 .48 528 432)"/><path d="M0 0h100v100H0z" style="fill:#fff" transform="matrix(.48 0 0 .48 576 432)"/><path d="M0 0h100v100H0z" style="fill:#fff" transform="matrix(.48 0 0 .48 96 480)"/><path d="M0 0h100v100H0z" style="fill:#fff" transform="matrix(.48 0 0 .48 192 480)"/><path d="M0 0h100v100H0z" style="fill:#fff" transform="matrix(.48 0 0 .48 288 480)"/><path d="M0 0h100v100H0z" style="fill:#fff" transform="matrix(.48 0 0 .48 384 480)"/><path d="M0 0h100v100H0z" style="fill:#fff" transform="matrix(.48 0 0 .48 672 480)"/><path d="M0 0h100v100H0z" style="fill:#fff" transform="matrix(.48 0 0 .48 864 480)"/><path d="M0 0h100v100H0z" style="fill:#fff" transform="matrix(.48 0 0 .48 1008 480)"/><path d="M0 0h100v100H0z" style="fill:#fff" transform="matrix(.48 0 0 .48 144 528)"/><path d="M0 0h100v100H0z" style="fill:#fff" transform="matrix(.48 0 0 .48 192 528)"/><path d="M0 0h100v100H0z" style="fill:#fff" transform="matrix(.48 0 0 .48 240 528)"/><path d="M0 0h100v100H0z" style="fill:#fff" transform="matrix(.48 0 0 .48 336 528)"/><path d="M0 0h100v100H0z" style="fill:#fff" transform="matrix(.48 0 0 .48 576 528)"/><path d="M0 0h100v100H0z" style="fill:#fff" transform="matrix(.48 0 0 .48 624 528)"/><path d="M0 0h100v100H0z" style="fill:#fff" transform="matrix(.48 0 0 .48 768 528)"/><path d="M0 0h100v100H0z" style="fill:#fff" transform="matrix(.48 0 0 .48 912 528)"/><path d="M0 0h100v100H0z" style="fill:#fff" transform="matrix(.48 0 0 .48 1008 528)"/><path d="M0 0h100v100H0z" style="fill:#fff" transform="matrix(.48 0 0 .48 1056 528)"/><path d="M0 0h100v100H0z" style="fill:#fff" transform="matrix(.48 0 0 .48 96 576)"/><path d="M0 0h100v100H0z" style="fill:#fff" transform="matrix(.48 0 0 .48 192 576)"/><path d="M0 0h100v100H0z" style="fill:#fff" transform="matrix(.48 0 0 .48 240 576)"/><path d="M0 0h100v100H0z" style="fill:#fff" transform="matrix(.48 0 0 .48 288 576)"/><path d="M0 0h100v100H0z" style="fill:#fff" transform="matrix(.48 0 0 .48 384 576)"/><path d="M0 0h100v100H0z" style="fill:#fff" transform="matrix(.48 0 0 .48 432 576)"/><path d="M0 0h100v100H0z" style="fill:#fff" transform="matrix(.48 0 0 .48 576 576)"/><path d="M0 0h100v100H0z" style="fill:#fff" transform="matrix(.48 0 0 .48 624 576)"/><path d="M0 0h100v100H0z" style="fill:#fff" transform="matrix(.48 0 0 .48 768 576)"/><path d="M0 0h100v100H0z" style="fill:#fff" transform="matrix(.48 0 0 .48 864 576)"/><path d="M0 0h100v100H0z" style="fill:#fff" transform="matrix(.48 0 0 .48 1056 576)"/><path d="M0 0h100v100H0z" style="fill:#fff" transform="matrix(.48 0 0 .48 144 624)"/><path d="M0 0h100v100H0z" style="fill:#fff" transform="matrix(.48 0 0 .48 240 624)"/><path d="M0 0h100v100H0z" style="fill:#fff" transform="matrix(.48 0 0 .48 336 624)"/><path d="M0 0h100v100H0z" style="fill:#fff" transform="matrix(.48 0 0 .48 528 624)"/><path d="M0 0h100v100H0z" style="fill:#fff" transform="matrix(.48 0 0 .48 576 624)"/><path d="M0 0h100v100H0z" style="fill:#fff" transform="matrix(.48 0 0 .48 624 624)"/><path d="M0 0h100v100H0z" style="fill:#fff" transform="matrix(.48 0 0 .48 672 624)"/><path d="M0 0h100v100H0z" style="fill:#fff" transform="matrix(.48 0 0 .48 720 624)"/><path d="M0 0h100v100H0z" style="fill:#fff" transform="matrix(.48 0 0 .48 816 624)"/><path d="M0 0h100v100H0z" style="fill:#fff" transform="matrix(.48 0 0 .48 912 624)"/><path d="M0 0h100v100H0z" style="fill:#fff" transform="matrix(.48 0 0 .48 960 624)"/><path d="M0 0h100v100H0z" style="fill:#fff" transform="matrix(.48 0 0 .48 1008 624)"/><path d="M0 0h100v100H0z" style="fill:#fff" transform="matrix(.48 0 0 .48 96 672)"/><path d="M0 0h100v100H0z" style="fill:#fff" transform="matrix(.48 0 0 .48 144 672)"/><path d="M0 0h100v100H0z" style="fill:#fff" transform="matrix(.48 0 0 .48 192 672)"/><path d="M0 0h100v100H0z" style="fill:#fff" transform="matrix(.48 0 0 .48 240 672)"/><path d="M0 0h100v100H0z" style="fill:#fff" transform="matrix(.48 0 0 .48 288 672)"/><path d="M0 0h100v100H0z" style="fill:#fff" transform="matrix(.48 0 0 .48 336 672)"/><path d="M0 0h100v100H0z" style="fill:#fff" transform="matrix(.48 0 0 .48 384 672)"/><path d="M0 0h100v100H0z" style="fill:#fff" transform="matrix(.48 0 0 .48 432 672)"/><path d="M0 0h100v100H0z" style="fill:#fff" transform="matrix(.48 0 0 .48 624 672)"/><path d="M0 0h100v100H0z" style="fill:#fff" transform="matrix(.48 0 0 .48 768 672)"/><path d="M0 0h100v100H0z" style="fill:#fff" transform="matrix(.48 0 0 .48 816 672)"/><path d="M0 0h100v100H0z" style="fill:#fff" transform="matrix(.48 0 0 .48 864 672)"/><path d="M0 0h100v100H0z" style="fill:#fff" transform="matrix(.48 0 0 .48 960 672)"/><path d="M0 0h100v100H0z" style="fill:#fff" transform="matrix(.48 0 0 .48 1008 672)"/><path d="M0 0h100v100H0z" style="fill:#fff" transform="matrix(.48 0 0 .48 480 720)"/><path d="M0 0h100v100H0z" style="fill:#fff" transform="matrix(.48 0 0 .48 528 720)"/><path d="M0 0h100v100H0z" style="fill:#fff" transform="matrix(.48 0 0 .48 768 720)"/><path d="M0 0h100v100H0z" style="fill:#fff" transform="matrix(.48 0 0 .48 864 720)"/><path d="M0 0h100v100H0z" style="fill:#fff" transform="matrix(.48 0 0 .48 912 720)"/><path d="M0 0h100v100H0z" style="fill:#fff" transform="matrix(.48 0 0 .48 960 720)"/><path d="M0 0h100v100H0z" style="fill:#fff" transform="matrix(.48 0 0 .48 528 768)"/><path d="M0 0h100v100H0z" style="fill:#fff" transform="matrix(.48 0 0 .48 576 768)"/><path d="M0 0h100v100H0z" style="fill:#fff" transform="matrix(.48 0 0 .48 672 768)"/><path d="M0 0h100v100H0z" style="fill:#fff" transform="matrix(.48 0 0 .48 864 768)"/><path d="M0 0h100v100H0z" style="fill:#fff" transform="matrix(.48 0 0 .48 960 768)"/><path d="M0 0h100v100H0z" style="fill:#fff" transform="matrix(.48 0 0 .48 576 816)"/><path d="M0 0h100v100H0z" style="fill:#fff" transform="matrix(.48 0 0 .48 768 816)"/><path d="M0 0h100v100H0z" style="fill:#fff" transform="matrix(.48 0 0 .48 816 816)"/><path d="M0 0h100v100H0z" style="fill:#fff" transform="matrix(.48 0 0 .48 912 816)"/><path d="M0 0h100v100H0z" style="fill:#fff" transform="matrix(.48 0 0 .48 480 864)"/><path d="M0 0h100v100H0z" style="fill:#fff" transform="matrix(.48 0 0 .48 528 864)"/><path d="M0 0h100v100H0z" style="fill:#fff" transform="matrix(.48 0 0 .48 576 864)"/><path d="M0 0h100v100H0z" style="fill:#fff" transform="matrix(.48 0 0 .48 672 864)"/><path d="M0 0h100v100H0z" style="fill:#fff" transform="matrix(.48 0 0 .48 768 864)"/><path d="M0 0h100v100H0z" style="fill:#fff" transform="matrix(.48 0 0 .48 864 864)"/><path d="M0 0h100v100H0z" style="fill:#fff" transform="matrix(.48 0 0 .48 1008 864)"/><path d="M0 0h100v100H0z" style="fill:#fff" transform="matrix(.48 0 0 .48 1056 864)"/><path d="M0 0h100v100H0z" style="fill:#fff" transform="matrix(.48 0 0 .48 576 912)"/><path d="M0 0h100v100H0z" style="fill:#fff" transform="matrix(.48 0 0 .48 624 912)"/><path d="M0 0h100v100H0z" style="fill:#fff" transform="matrix(.48 0 0 .48 720 912)"/><path d="M0 0h100v100H0z" style="fill:#fff" transform="matrix(.48 0 0 .48 912 912)"/><path d="M0 0h100v100H0z" style="fill:#fff" transform="matrix(.48 0 0 .48 1008 912)"/><path d="M0 0h100v100H0z" style="fill:#fff" transform="matrix(.48 0 0 .48 480 960)"/><path d="M0 0h100v100H0z" style="fill:#fff" transform="matrix(.48 0 0 .48 624 960)"/><path d="M0 0h100v100H0z" style="fill:#fff" transform="matrix(.48 0 0 .48 720 960)"/><path d="M0 0h100v100H0z" style="fill:#fff" transform="matrix(.48 0 0 .48 768 960)"/><path d="M0 0h100v100H0z" style="fill:#fff" transform="matrix(.48 0 0 .48 816 960)"/><path d="M0 0h100v100H0z" style="fill:#fff" transform="matrix(.48 0 0 .48 864 960)"/><path d="M0 0h100v100H0z" style="fill:#fff" transform="matrix(.48 0 0 .48 1056 960)"/><path d="M0 0h100v100H0z" style="fill:#fff" transform="matrix(.48 0 0 .48 624 1008)"/><path d="M0 0h100v100H0z" style="fill:#fff" transform="matrix(.48 0 0 .48 672 1008)"/><path d="M0 0h100v100H0z" style="fill:#fff" transform="matrix(.48 0 0 .48 720 1008)"/><path d="M0 0h100v100H0z" style="fill:#fff" transform="matrix(.48 0 0 .48 816 1008)"/><path d="M0 0h100v100H0z" style="fill:#fff" transform="matrix(.48 0 0 .48 912 1008)"/><path d="M0 0h100v100H0z" style="fill:#fff" transform="matrix(.48 0 0 .48 1008 1008)"/><path d="M0 0h100v100H0z" style="fill:#fff" transform="matrix(.48 0 0 .48 1056 1008)"/><path d="M0 0h100v100H0z" style="fill:#fff" transform="matrix(.48 0 0 .48 480 1056)"/><path d="M0 0h100v100H0z" style="fill:#fff" transform="matrix(.48 0 0 .48 528 1056)"/><path d="M0 0h100v100H0z" style="fill:#fff" transform="matrix(.48 0 0 .48 624 1056)"/><path d="M0 0h100v100H0z" style="fill:#fff" transform="matrix(.48 0 0 .48 720 1056)"/><path d="M0 0h100v100H0z" style="fill:#fff" transform="matrix(.48 0 0 .48 768 1056)"/><path d="M0 0h100v100H0z" style="fill:#fff" transform="matrix(.48 0 0 .48 816 1056)"/><path d="M0 0h100v100H0z" style="fill:#fff" transform="matrix(.48 0 0 .48 864 1056)"/><path d="M0 0h100v100H0z" style="fill:#fff" transform="matrix(.48 0 0 .48 960 1056)"/><path d="M0 0h100v100H0z" style="fill:#fff" transform="matrix(.48 0 0 .48 1056 1056)"/><g style="fill:#fff"><path d="M34 85h51V15H15v51c0 10 8 19 19 19z" style="fill:none" transform="matrix(3.36 0 0 -3.36 96 432)"/><path d="M432 96v336H96V211c0-64 51-115 114-115h222zm-50 50H210c-35 0-64 29-64 65v171h236V146z"/></g><g style="fill:#fff"><path d="M34 85h51V15H15v51c0 10 8 19 19 19z" style="fill:none" transform="rotate(180 552 216) scale(3.36)"/><path d="M768 96v336h336V211c0-64-51-115-114-115H768zm50 50h172c35 0 64 29 64 65v171H818V146z"/></g><g style="fill:#fff"><path d="M34 85h51V15H15v51c0 10 8 19 19 19z" style="fill:none" transform="matrix(3.36 0 0 3.36 96 768)"/><path d="M432 1104V768H96v221c0 64 51 115 114 115h222zm-50-50H210c-35 0-64-29-64-65V818h236v236z"/></g><path d="M100 100V0H0v72c0 16 12 28 27 28h73z" style="fill:#fff" transform="matrix(1.44 0 0 -1.44 192 336)"/><path d="M100 100V0H0v72c0 16 12 28 27 28h73z" style="fill:#fff" transform="rotate(180 504 168) scale(1.44)"/><path d="M100 100V0H0v72c0 16 12 28 27 28h73z" style="fill:#fff" transform="matrix(1.44 0 0 1.44 192 864)"/></svg>