<?xml version="1.0" standalone="no"?>
<!DOCTYPE svg PUBLIC "-//W3C//DTD SVG 20010904//EN"
 "http://www.w3.org/TR/2001/REC-SVG-20010904/DTD/svg10.dtd">
<svg version="1.0" xmlns="http://www.w3.org/2000/svg"
 width="1542.000000pt" height="1542.000000pt" viewBox="0 0 1542.000000 1542.000000"
 preserveAspectRatio="xMidYMid meet">
<metadata>
Created by potrace 1.14, written by Peter Selinger 2001-2017
</metadata>
<g transform="translate(0.000000,1542.000000) scale(0.100000,-0.100000)"
fill="#000000" stroke="none">
<path d="M9452 14233 c-4 -1 -115 -4 -247 -7 -289 -6 -390 -14 -505 -40 -91
-21 -132 -44 -405 -226 -143 -95 -264 -173 -270 -173 -5 0 -66 4 -135 9 -223
15 -869 8 -969 -11 -9 -1 -59 -6 -111 -10 -52 -4 -97 -8 -100 -10 -3 -2 -34
-6 -70 -10 -36 -4 -67 -8 -70 -10 -3 -2 -30 -6 -60 -9 -62 -7 -92 -12 -135
-21 -16 -3 -88 -17 -160 -31 -71 -14 -166 -35 -210 -46 -44 -11 -89 -22 -101
-24 -161 -30 -702 -213 -934 -316 -461 -205 -788 -390 -1203 -683 -379 -268
-829 -687 -1146 -1070 -50 -60 -97 -117 -105 -125 -35 -39 -231 -308 -302
-416 -87 -130 -224 -350 -224 -360 0 -3 -8 -18 -19 -32 -18 -26 -127 -231
-179 -337 -42 -85 -112 -237 -112 -242 0 -2 -12 -30 -26 -61 -119 -260 -271
-726 -350 -1077 -10 -44 -19 -82 -19 -85 -2 -6 -16 -77 -21 -105 -10 -49 -33
-184 -38 -220 -4 -23 -8 -50 -10 -61 -2 -12 -7 -45 -11 -75 -3 -30 -8 -65 -10
-79 -2 -14 -6 -54 -10 -90 -4 -36 -8 -76 -10 -90 -2 -14 -7 -70 -11 -125 -3
-55 -8 -122 -10 -150 -4 -68 -4 -554 0 -635 8 -146 19 -274 32 -385 4 -27 7
-63 9 -80 24 -277 142 -814 255 -1160 69 -214 75 -242 75 -373 0 -142 22 -126
-325 -232 -331 -101 -579 -201 -775 -313 -244 -139 -369 -238 -406 -321 -55
-127 37 -245 302 -385 192 -101 556 -208 939 -277 14 -3 68 -13 120 -24 52
-10 167 -33 255 -50 88 -17 203 -42 255 -55 137 -35 634 -215 855 -311 107
-46 113 -50 226 -163 181 -182 277 -270 459 -422 411 -343 932 -671 1400 -882
135 -61 265 -117 272 -117 4 0 31 -11 60 -24 29 -13 71 -29 93 -36 22 -7 54
-18 70 -26 143 -62 751 -229 945 -258 19 -3 44 -7 55 -9 11 -3 36 -7 55 -11
19 -3 44 -8 56 -10 12 -2 45 -7 75 -11 30 -4 56 -8 59 -10 3 -1 36 -6 73 -10
37 -3 76 -8 85 -10 36 -7 198 -21 367 -31 218 -15 765 -8 910 11 17 2 55 6 85
9 30 3 82 8 115 12 58 5 295 39 345 49 24 5 116 22 170 32 298 53 756 192
1115 335 142 57 155 60 235 61 138 0 209 -31 384 -167 86 -68 126 -81 311
-102 17 -1 50 -6 75 -9 25 -3 59 -8 75 -10 17 -2 59 -7 95 -10 36 -3 83 -8
105 -11 142 -17 418 -23 558 -12 137 11 228 38 323 94 65 39 187 100 289 144
40 18 182 58 265 75 101 21 178 54 280 120 206 132 453 363 504 470 35 73 133
188 339 395 217 219 283 294 318 361 18 36 53 153 63 212 3 15 7 35 10 45 3 9
7 35 11 56 12 86 58 243 87 299 30 60 91 120 207 205 110 80 204 165 238 217
51 77 61 137 68 390 12 464 19 632 29 705 3 19 8 58 11 85 14 117 36 208 65
265 24 48 98 110 267 227 70 48 133 91 138 95 6 4 46 34 90 67 111 81 139 112
137 155 -1 35 -42 229 -107 506 -20 85 -38 163 -40 174 -26 119 -202 829 -240
966 -14 52 -28 104 -30 115 -3 11 -21 76 -40 145 -20 69 -42 148 -50 175 -23
85 -86 268 -105 306 -10 19 -76 93 -147 165 -169 171 -228 211 -337 234 -56
11 -65 17 -148 102 l-89 90 -42 -6 c-23 -3 -59 -10 -80 -15 -53 -13 -90 2
-119 47 -14 20 -59 120 -102 222 -143 340 -194 427 -322 557 -77 78 -165 203
-209 298 -98 215 -234 465 -378 700 -112 182 -439 635 -487 675 -3 3 -16 19
-29 35 -24 31 -117 137 -211 240 -30 33 -121 125 -201 205 -160 159 -145 133
-165 280 -5 31 -19 122 -29 175 -13 72 -28 114 -66 180 -23 41 -50 83 -58 93
-13 14 -127 187 -176 267 -7 12 -27 54 -44 94 -17 41 -51 101 -75 135 -47 65
-172 193 -221 227 -17 11 -164 88 -329 170 -164 82 -344 174 -400 204 -56 30
-143 70 -193 89 -149 57 -186 80 -285 179 -99 100 -152 134 -220 143 -44 5
-173 10 -186 7z"/>
</g>
</svg>
